<svg width="25" height="24" viewBox="0 0 25 24" fill="none" xmlns="http://www.w3.org/2000/svg">
<g clip-path="url(#clip0_144_679)">
<path d="M24.3333 12C24.3333 5.37258 18.9607 0 12.3333 0C5.70583 0 0.333252 5.37258 0.333252 12C0.333252 17.9895 4.72146 22.954 10.4583 23.8542V15.4688H7.41138V12H10.4583V9.35625C10.4583 6.34875 12.2498 4.6875 14.9908 4.6875C16.3033 4.6875 17.677 4.92188 17.677 4.92188V7.875H16.1639C14.6733 7.875 14.2083 8.80008 14.2083 9.75V12H17.5364L17.0043 15.4688H14.2083V23.8542C19.945 22.954 24.3333 17.9895 24.3333 12Z" fill="#818190"/>
</g>
<defs>
<clipPath id="clip0_144_679">
<rect width="24" height="24" fill="white" transform="translate(0.333252)"/>
</clipPath>
</defs>
</svg>
