<svg width="72" height="11" viewBox="0 0 72 11" fill="none" xmlns="http://www.w3.org/2000/svg">
<path d="M0.924716 10.5V2.86364H2.64489V4.16122H2.73438C2.89347 3.72372 3.15696 3.38234 3.52486 3.13707C3.89276 2.88849 4.33191 2.7642 4.84233 2.7642C5.35938 2.7642 5.79522 2.89015 6.14986 3.14205C6.50781 3.39062 6.75971 3.73035 6.90554 4.16122H6.98509C7.15412 3.73698 7.43916 3.39891 7.8402 3.14702C8.24456 2.89181 8.72348 2.7642 9.27699 2.7642C9.97964 2.7642 10.553 2.98627 10.9972 3.4304C11.4413 3.87453 11.6634 4.52249 11.6634 5.37429V10.5H9.85867V5.6527C9.85867 5.17874 9.73272 4.83239 9.48082 4.61364C9.22893 4.39157 8.92069 4.28054 8.55611 4.28054C8.12192 4.28054 7.7822 4.41643 7.53693 4.68821C7.29498 4.95668 7.17401 5.30634 7.17401 5.73722V10.5H5.40909V5.57812C5.40909 5.18371 5.28977 4.86884 5.05114 4.63352C4.81581 4.3982 4.50758 4.28054 4.12642 4.28054C3.8679 4.28054 3.63258 4.34683 3.42045 4.4794C3.20833 4.60866 3.0393 4.79261 2.91335 5.03125C2.78741 5.26657 2.72443 5.54167 2.72443 5.85653V10.5H0.924716ZM12.4787 1.86435V0.318182H20.6023V1.86435H17.4553V10.5H15.6257V1.86435H12.4787ZM30.8152 5.40909C30.8152 6.50616 30.6097 7.44579 30.1987 8.22798C29.791 9.00687 29.2342 9.60346 28.5282 10.0178C27.8256 10.4321 27.0285 10.6392 26.1369 10.6392C25.2453 10.6392 24.4466 10.4321 23.7406 10.0178C23.0379 9.60014 22.4811 9.00189 22.0701 8.22301C21.6625 7.44081 21.4586 6.50284 21.4586 5.40909C21.4586 4.31203 21.6625 3.37405 22.0701 2.59517C22.4811 1.81297 23.0379 1.21473 23.7406 0.800426C24.4466 0.386126 25.2453 0.178977 26.1369 0.178977C27.0285 0.178977 27.8256 0.386126 28.5282 0.800426C29.2342 1.21473 29.791 1.81297 30.1987 2.59517C30.6097 3.37405 30.8152 4.31203 30.8152 5.40909ZM28.9608 5.40909C28.9608 4.63684 28.8398 3.98556 28.5978 3.45526C28.3592 2.92164 28.0278 2.51894 27.6035 2.24716C27.1793 1.97206 26.6904 1.83452 26.1369 1.83452C25.5834 1.83452 25.0945 1.97206 24.6703 2.24716C24.246 2.51894 23.9129 2.92164 23.671 3.45526C23.4324 3.98556 23.313 4.63684 23.313 5.40909C23.313 6.18134 23.4324 6.83428 23.671 7.3679C23.9129 7.8982 24.246 8.3009 24.6703 8.57599C25.0945 8.84777 25.5834 8.98366 26.1369 8.98366C26.6904 8.98366 27.1793 8.84777 27.6035 8.57599C28.0278 8.3009 28.3592 7.8982 28.5978 7.3679C28.8398 6.83428 28.9608 6.18134 28.9608 5.40909ZM34.4034 0.318182V10.5H32.5589V0.318182H34.4034ZM35.9533 1.86435V0.318182H44.0769V1.86435H40.9299V10.5H39.1003V1.86435H35.9533ZM52.0613 0.318182H53.9057V6.97017C53.9057 7.69934 53.7334 8.34067 53.3887 8.89418C53.0473 9.44768 52.5667 9.88021 51.9469 10.1918C51.3271 10.5 50.6029 10.6541 49.7743 10.6541C48.9424 10.6541 48.2166 10.5 47.5968 10.1918C46.977 9.88021 46.4964 9.44768 46.155 8.89418C45.8136 8.34067 45.6429 7.69934 45.6429 6.97017V0.318182H47.4874V6.81605C47.4874 7.24029 47.5802 7.61813 47.7658 7.94957C47.9547 8.28101 48.2199 8.54119 48.5613 8.73011C48.9026 8.91572 49.307 9.00852 49.7743 9.00852C50.2417 9.00852 50.646 8.91572 50.9874 8.73011C51.3321 8.54119 51.5972 8.28101 51.7828 7.94957C51.9685 7.61813 52.0613 7.24029 52.0613 6.81605V0.318182ZM55.9105 10.5V0.318182H59.7287C60.5109 0.318182 61.1671 0.454072 61.6974 0.725852C62.2311 0.997632 62.6338 1.37879 62.9055 1.86932C63.1806 2.35653 63.3182 2.92495 63.3182 3.57457C63.3182 4.22751 63.179 4.79427 62.9006 5.27486C62.6255 5.75213 62.2195 6.12169 61.6825 6.38352C61.1456 6.64205 60.486 6.77131 59.7038 6.77131H56.9844V5.24006H59.4553C59.9126 5.24006 60.2872 5.17708 60.5788 5.05114C60.8705 4.92187 61.0859 4.73461 61.2251 4.48935C61.3677 4.24077 61.4389 3.93584 61.4389 3.57457C61.4389 3.2133 61.3677 2.90507 61.2251 2.64986C61.0826 2.39134 60.8655 2.19579 60.5739 2.06321C60.2822 1.92732 59.906 1.85938 59.4453 1.85938H57.755V10.5H55.9105ZM61.1705 5.88636L63.6911 10.5H61.6328L59.157 5.88636H61.1705ZM65.016 10.5V0.318182H71.6381V1.86435H66.8604V4.62855H71.2951V6.17472H66.8604V8.95384H71.6779V10.5H65.016Z" fill="#F3F3FB"/>
</svg>
