<svg width="21" height="20" viewBox="0 0 21 20" fill="none" xmlns="http://www.w3.org/2000/svg">
<path d="M7.31682 7.37779C7.89681 8.58581 8.68747 9.71801 9.68879 10.7193C10.6901 11.7206 11.8223 12.5113 13.0303 13.0913C13.1342 13.1412 13.1862 13.1661 13.2519 13.1853C13.4856 13.2534 13.7724 13.2045 13.9703 13.0628C14.026 13.0229 14.0736 12.9753 14.1689 12.88C14.4602 12.5887 14.6059 12.443 14.7523 12.3478C15.3048 11.9886 16.0169 11.9886 16.5693 12.3478C16.7158 12.443 16.8615 12.5887 17.1528 12.88L17.3152 13.0424C17.7581 13.4853 17.9795 13.7067 18.0998 13.9446C18.339 14.4175 18.339 14.9761 18.0998 15.449C17.9795 15.6869 17.7581 15.9083 17.3152 16.3512L17.1838 16.4825C16.7425 16.9239 16.5218 17.1446 16.2218 17.3131C15.8889 17.5001 15.3718 17.6346 14.9899 17.6334C14.6458 17.6324 14.4106 17.5657 13.9402 17.4322C11.4124 16.7147 9.02712 15.361 7.03714 13.371C5.04715 11.381 3.69342 8.99569 2.97595 6.46786C2.84244 5.99749 2.77569 5.7623 2.77467 5.41818C2.77353 5.03633 2.908 4.51925 3.09501 4.18633C3.26355 3.88631 3.48423 3.66563 3.92558 3.22428L4.05695 3.09292C4.49981 2.65005 4.72125 2.42861 4.95907 2.30833C5.43203 2.0691 5.99059 2.0691 6.46356 2.30832C6.70137 2.42861 6.92281 2.65005 7.36568 3.09291L7.52807 3.25531C7.81941 3.54665 7.96507 3.69231 8.06031 3.8388C8.41947 4.3912 8.41947 5.10336 8.06031 5.65576C7.96507 5.80225 7.81941 5.94791 7.52807 6.23925C7.43281 6.33451 7.38518 6.38214 7.34531 6.43782C7.20363 6.63568 7.15471 6.92256 7.22282 7.15619C7.24198 7.22193 7.26693 7.27389 7.31682 7.37779Z" stroke="#818191" stroke-width="2" stroke-linecap="round" stroke-linejoin="round"/>
</svg>
