<svg width="20" height="21" viewBox="0 0 20 21" fill="none" xmlns="http://www.w3.org/2000/svg">
<path d="M6.98356 7.87767C7.56356 9.08569 8.35422 10.2179 9.35553 11.2192C10.3568 12.2205 11.4891 13.0112 12.6971 13.5912C12.801 13.6411 12.8529 13.666 12.9187 13.6852C13.1523 13.7533 13.4392 13.7044 13.637 13.5627C13.6927 13.5228 13.7403 13.4752 13.8356 13.3799C14.1269 13.0886 14.2726 12.9429 14.4191 12.8477C14.9715 12.4885 15.6837 12.4885 16.2361 12.8477C16.3825 12.9429 16.5282 13.0886 16.8196 13.3799L16.9819 13.5423C17.4248 13.9852 17.6462 14.2066 17.7665 14.4444C18.0058 14.9174 18.0058 15.476 17.7665 15.9489C17.6462 16.1867 17.4248 16.4082 16.9819 16.851L16.8506 16.9824C16.4092 17.4238 16.1886 17.6444 15.8885 17.813C15.5556 18 15.0385 18.1345 14.6567 18.1333C14.3126 18.1323 14.0774 18.0655 13.607 17.932C11.0792 17.2146 8.69387 15.8608 6.70388 13.8709C4.7139 11.8809 3.36017 9.49557 2.6427 6.96774C2.50919 6.49737 2.44244 6.26218 2.44141 5.91806C2.44028 5.53621 2.57475 5.01913 2.76176 4.68621C2.9303 4.38618 3.15098 4.16551 3.59233 3.72416L3.72369 3.59279C4.16656 3.14992 4.388 2.92849 4.62581 2.8082C5.09878 2.56898 5.65734 2.56898 6.1303 2.8082C6.36812 2.92849 6.58955 3.14992 7.03242 3.59279L7.19481 3.75518C7.48615 4.04652 7.63182 4.19219 7.72706 4.33867C8.08622 4.89108 8.08622 5.60323 7.72706 6.15564C7.63182 6.30212 7.48615 6.44779 7.19481 6.73913C7.09955 6.83439 7.05192 6.88202 7.01206 6.9377C6.87038 7.13556 6.82146 7.42244 6.88957 7.65607C6.90873 7.72181 6.93367 7.77376 6.98356 7.87767Z" stroke="#48487F" stroke-width="2" stroke-linecap="round" stroke-linejoin="round"/>
</svg>
