<svg width="12" height="10" viewBox="0 0 12 10" fill="none" xmlns="http://www.w3.org/2000/svg">
<path d="M11.5916 1.00834C11.5142 0.930232 11.422 0.868237 11.3205 0.82593C11.2189 0.783622 11.11 0.761841 11 0.761841C10.89 0.761841 10.781 0.783622 10.6795 0.82593C10.5779 0.868237 10.4858 0.930232 10.4083 1.00834L4.19998 7.22501L1.59165 4.60834C1.51121 4.53064 1.41626 4.46955 1.31221 4.42854C1.20817 4.38754 1.09706 4.36743 0.985247 4.36936C0.87343 4.3713 0.763089 4.39524 0.660523 4.43982C0.557958 4.48439 0.465177 4.54874 0.387478 4.62917C0.30978 4.70961 0.248685 4.80456 0.207681 4.9086C0.166678 5.01265 0.146569 5.12375 0.148504 5.23557C0.150438 5.34739 0.174378 5.45773 0.218956 5.56029C0.263534 5.66286 0.327877 5.75564 0.408312 5.83334L3.60831 9.03334C3.68578 9.11145 3.77795 9.17344 3.8795 9.21575C3.98105 9.25805 4.08997 9.27984 4.19998 9.27984C4.30999 9.27984 4.41891 9.25805 4.52046 9.21575C4.62201 9.17344 4.71418 9.11145 4.79165 9.03334L11.5916 2.23334C11.6762 2.1553 11.7437 2.06059 11.7899 1.95518C11.8361 1.84976 11.8599 1.73592 11.8599 1.62084C11.8599 1.50575 11.8361 1.39192 11.7899 1.2865C11.7437 1.18108 11.6762 1.08637 11.5916 1.00834Z" fill="#48487F"/>
</svg>
